# xmcd
#
# Track frame offsets:
#	150
#	13985
#	26831
#	43889
#	59605
#	77549
#	95045
#	110765
#	129286
#	144086
#	157276
#	173982
#	188561
#	206109
#	222826
#	238276
#	252971
#	268436
#
# Disc length: 3779 seconds
# Revision: 0
# Processed by: cddbd v1.5.2PL0 Copyright (c) Steve Scherf et al.
# Submitted via: dBpowerAMP V12.0
#
DISCID=180ec112
DTITLE=Various Artist - Country Radio April 2011
DYEAR=2011
DGENRE=Country
TTITLE0=Tolby Keith - Somewhere Else
TTITLE1=Kenny Chesney - Live A Little
TTITLE2=Libby McGrath - I'm Not Gonna Cry
TTITLE3=Reba - If I Were A Boy
TTITLE4=Tim McGraw and Gwyneth Paltrow - Me and Tennessee
TTITLE5=Johnny Reid - Hands Of A Working Man
TTITLE6=Walker Hayes - Why Wait For Summer
TTITLE7=Carolyn Dawn Johnson - Stop For Me
TTITLE8=Victoria Banks - Come On
TTITLE9=Hey Romeo - He Still Calls Me Baby
TTITLE10=Justin Moore - If Heaven Wasn't So Far Away
TTITLE11=Jimmy Rankin - Here In My Heart
TTITLE12=Ridley Bent - Livin With Her Ex
TTITLE13=David Nail - Let It Rain
TTITLE14=Joanna Smith - Georgia Mud
TTITLE15=Gomie - Everything Will Be Alright
TTITLE16=Jason McCoy - She's Good For Me
TTITLE17=Jacob Lyda - I'm Doing Alright
EXTD=
EXTT0=
EXTT1=
EXTT2=
EXTT3=
EXTT4=
EXTT5=
EXTT6=
EXTT7=
EXTT8=
EXTT9=
EXTT10=
EXTT11=
EXTT12=
EXTT13=
EXTT14=
EXTT15=
EXTT16=
EXTT17=
PLAYORDER=
